<svg width="25" height="25" viewBox="0 0 25 25" fill="none" xmlns="http://www.w3.org/2000/svg">
<path d="M12.5002 4.89686L11.4247 3.71767C8.9001 0.949676 4.27096 1.90487 2.59991 5.38486C1.81538 7.02166 1.63838 9.38485 3.07092 12.4008C4.45096 15.3048 7.32205 18.7832 12.5002 22.572C17.6784 18.7832 20.548 15.3048 21.9295 12.4008C23.362 9.38325 23.1865 7.02166 22.4005 5.38486C20.7295 1.90487 16.1003 0.948076 13.5757 3.71607L12.5002 4.89686ZM12.5002 24.5C-10.5 8.28885 5.41849 -4.36391 12.2362 2.32887C12.3262 2.41687 12.4147 2.50807 12.5002 2.60247C12.5848 2.50816 12.6729 2.41742 12.7642 2.33047C19.5804 -4.36711 35.5004 8.28725 12.5002 24.5Z" fill="black"/>
</svg>
