<svg width="24" height="24" viewBox="0 0 24 24" fill="none" xmlns="http://www.w3.org/2000/svg">
<path d="M3.03189 13.15C0.531889 10.33 -0.188103 6.91997 1.1019 4.02997C1.51812 2.99915 2.2262 2.11225 3.13925 1.47809C4.0523 0.843925 5.13064 0.490072 6.24191 0.459961C7.28965 0.525624 8.31137 0.813814 9.23904 1.30524C10.1667 1.79666 10.979 2.48007 11.6219 3.31L11.9919 3.72998L12.3719 3.31C13.0104 2.48102 13.8192 1.79856 14.7439 1.30865C15.6685 0.818746 16.6874 0.532744 17.7319 0.469971C18.8404 0.501392 19.9155 0.85605 20.8251 1.4903C21.7347 2.12454 22.4392 3.01074 22.8519 4.03998C24.1519 6.91998 23.4319 10.32 20.9319 13.13L11.9319 23.21L3.03189 13.15Z" fill="#FD6262"/>
<path d="M6.24204 0.959961C7.2175 1.02805 8.16744 1.30215 9.02927 1.7641C9.89111 2.22604 10.6453 2.8654 11.242 3.64001L11.982 4.47998L12.732 3.64001C13.3284 2.86583 14.0827 2.22737 14.9447 1.76703C15.8068 1.30669 16.7569 1.03496 17.732 0.969971C18.744 1.00231 19.7246 1.32881 20.554 1.90955C21.3834 2.49028 22.0255 3.30011 22.402 4.23999C23.612 6.93999 22.922 10.14 20.562 12.79L11.972 22.49L3.41203 12.85C1.04203 10.19 0.35199 6.98002 1.56199 4.27002C1.93916 3.32862 2.5829 2.51775 3.41422 1.93689C4.24555 1.35603 5.22835 1.03042 6.24204 1V0.959961ZM6.24204 0C0.942044 0 -2.75797 7.37002 2.66203 13.52L11.972 24L21.312 13.5C26.752 7.37 23.022 0.0100098 17.732 0.0100098C16.6165 0.0710184 15.527 0.370329 14.5368 0.887817C13.5467 1.40531 12.679 2.12896 11.992 3.01001C11.304 2.12772 10.4346 1.40334 9.44267 0.885803C8.45071 0.368263 7.3593 0.0696144 6.24204 0.0100098V0Z" fill="black"/>
</svg>
