<svg width="10" height="10" viewBox="0 0 10 10" fill="none" xmlns="http://www.w3.org/2000/svg">
<g clip-path="url(#clip0_15_71)">
<path d="M5.32155 7.59414L9.86688 3.04869C10.0444 2.87121 10.0444 2.58339 9.86685 2.40588C9.68934 2.22839 9.40155 2.22839 9.22403 2.40591L5.0001 6.62993L0.775951 2.40588C0.598436 2.22839 0.310649 2.22839 0.133134 2.40591C0.0443766 2.49463 1.26362e-05 2.61097 1.26362e-05 2.7273C1.26362e-05 2.84363 0.0443766 2.95997 0.133165 3.04872L4.67874 7.59414C4.76398 7.67941 4.87958 7.72729 5.00013 7.72729C5.12067 7.72729 5.23631 7.67941 5.32155 7.59414Z" fill="black"/>
</g>
<defs>
<clipPath id="clip0_15_71">
<rect width="10" height="10" fill="white" transform="translate(10) rotate(90)"/>
</clipPath>
</defs>
</svg>
